<?xml version="1.0" encoding="iso-8859-1"?>
<!-- Generator: Adobe Illustrator 19.0.0, SVG Export Plug-In . SVG Version: 6.00 Build 0)  -->
<svg version="1.1" id="Capa_1" xmlns="http://www.w3.org/2000/svg" xmlns:xlink="http://www.w3.org/1999/xlink" x="0px" y="0px"
	 viewBox="0 0 512 512" style="enable-background:new 0 0 512 512;" xml:space="preserve">
<g transform="translate(1 1)">
	<path style="fill:#FFE100;" d="M485.43,502.498H24.57c-9.422,0-17.069-7.647-17.069-17.069V75.776h494.997v409.653
		C502.498,494.852,494.852,502.498,485.43,502.498"/>
	<path style="fill:#FFA800;" d="M476.895,75.777V485.43c0,9.422-7.647,17.069-17.069,17.069h25.603
		c9.422,0,17.069-7.647,17.069-17.069V75.777H476.895z"/>
	<path style="fill:#FFE100;" d="M502.498,75.777H7.501V24.57c0-9.422,7.647-17.069,17.069-17.069H485.43
		c9.422,0,17.069,7.647,17.069,17.069L502.498,75.777L502.498,75.777z"/>
	<path style="fill:#FFA800;" d="M485.43,7.501h-25.603c9.422,0,17.069,7.647,17.069,17.069v51.207h25.603V24.57
		C502.498,15.148,494.852,7.501,485.43,7.501"/>
	<g>
		<path style="fill:#FFFFFF;" d="M33.104,75.777V485.43c0,9.422,7.647,17.069,17.069,17.069H24.57
			c-9.422,0-17.069-7.647-17.069-17.069V75.777H33.104z"/>
		<path style="fill:#FFFFFF;" d="M24.57,7.501h25.603c-9.422,0-17.069,7.647-17.069,17.069v51.207H7.501V24.57
			C7.501,15.148,15.148,7.501,24.57,7.501"/>
	</g>
	<path d="M485.429,511H24.57C10.47,511-1,499.529-1,485.429V75.776c0-4.695,3.806-8.501,8.501-8.501h494.998
		c4.695,0,8.501,3.806,8.501,8.501v409.653C511,499.529,499.529,511,485.429,511z M16.002,84.278V485.43
		c0,4.725,3.843,8.568,8.568,8.568h460.858c4.725,0,8.568-3.844,8.568-8.568V84.278H16.002z"/>
	<path d="M502.499,84.278H7.501C2.806,84.278-1,80.472-1,75.777V24.57C-1,10.47,10.47-1,24.57-1h460.858
		c14.1,0,25.57,11.47,25.57,25.57v51.207C511,80.472,507.194,84.278,502.499,84.278z M16.002,67.276h477.996V24.57
		c0-4.725-3.844-8.568-8.568-8.568H24.57c-4.725,0-8.568,3.844-8.568,8.568V67.276z"/>
	<path d="M50.174,41.639c0,4.72-3.814,8.534-8.534,8.534s-8.535-3.814-8.535-8.534s3.814-8.534,8.534-8.534
		S50.174,36.919,50.174,41.639"/>
	<path d="M84.311,41.639c0,4.72-3.814,8.534-8.534,8.534c-4.72,0-8.534-3.814-8.534-8.534s3.814-8.534,8.534-8.534
		S84.311,36.919,84.311,41.639"/>
	<path d="M118.448,41.639c0,4.72-3.814,8.534-8.534,8.534c-4.72,0-8.534-3.814-8.534-8.534s3.814-8.534,8.534-8.534
		C114.634,33.104,118.448,36.919,118.448,41.639"/>
	<path d="M109.914,126.95H50.174c-4.695,0-8.501-3.806-8.501-8.501c0-4.695,3.806-8.501,8.501-8.501h59.741
		c4.695,0,8.501,3.806,8.501,8.501C118.415,123.143,114.609,126.95,109.914,126.95z"/>
	<path d="M272.068,126.95H161.121c-4.695,0-8.501-3.806-8.501-8.501c0-4.695,3.807-8.501,8.501-8.501h110.947
		c4.695,0,8.501,3.806,8.501,8.501C280.569,123.143,276.764,126.95,272.068,126.95z"/>
	<path d="M161.121,178.156H50.174c-4.695,0-8.501-3.806-8.501-8.501c0-4.695,3.806-8.501,8.501-8.501h110.947
		c4.695,0,8.501,3.806,8.501,8.501C169.622,174.35,165.816,178.156,161.121,178.156z"/>
	<path d="M246.465,178.156h-34.137c-4.695,0-8.501-3.806-8.501-8.501c0-4.695,3.806-8.501,8.501-8.501h34.137
		c4.695,0,8.501,3.806,8.501,8.501C254.966,174.35,251.16,178.156,246.465,178.156z"/>
	<path d="M109.914,229.363H50.174c-4.695,0-8.501-3.806-8.501-8.501c0-4.695,3.806-8.501,8.501-8.501h59.741
		c4.695,0,8.501,3.807,8.501,8.501C118.415,225.556,114.609,229.363,109.914,229.363z"/>
	<path d="M246.465,229.363h-85.344c-4.695,0-8.501-3.806-8.501-8.501c0-4.695,3.807-8.501,8.501-8.501h85.344
		c4.695,0,8.501,3.807,8.501,8.501C254.966,225.556,251.16,229.363,246.465,229.363z"/>
	<path d="M161.121,280.569H50.174c-4.695,0-8.501-3.806-8.501-8.501s3.806-8.501,8.501-8.501h110.947
		c4.695,0,8.501,3.806,8.501,8.501S165.816,280.569,161.121,280.569z"/>
	<path d="M246.465,280.569h-34.137c-4.695,0-8.501-3.806-8.501-8.501s3.806-8.501,8.501-8.501h34.137
		c4.695,0,8.501,3.806,8.501,8.501S251.16,280.569,246.465,280.569z"/>
	<path d="M50.174,468.328c-4.695,0-8.501-3.806-8.501-8.501c0-4.695,3.806-8.501,8.501-8.501c9.43,0,17.102-7.672,17.102-17.102
		v-25.604c0-2.254,0.896-4.417,2.49-6.012l11.057-11.056l-11.057-11.057c-1.6-1.6-2.496-3.771-2.49-6.034l0.068-25.604
		c0-9.407-7.703-17.079-17.17-17.079c-4.695,0-8.501-3.806-8.501-8.501c0-4.695,3.806-8.501,8.501-8.501
		c18.842,0,34.172,15.299,34.172,34.104l-0.059,22.092l14.57,14.569c1.594,1.595,2.49,3.757,2.49,6.012
		c0,2.254-0.896,4.417-2.49,6.012L84.278,412.14v22.083C84.278,453.029,68.978,468.328,50.174,468.328z"/>
</g>
<g>
</g>
<g>
</g>
<g>
</g>
<g>
</g>
<g>
</g>
<g>
</g>
<g>
</g>
<g>
</g>
<g>
</g>
<g>
</g>
<g>
</g>
<g>
</g>
<g>
</g>
<g>
</g>
<g>
</g>
</svg>
